<?xml version="1.0" encoding="iso-8859-1"?>
<!-- Generator: Adobe Illustrator 18.0.0, SVG Export Plug-In . SVG Version: 6.00 Build 0)  -->
<!DOCTYPE svg PUBLIC "-//W3C//DTD SVG 1.1//EN" "http://www.w3.org/Graphics/SVG/1.1/DTD/svg11.dtd">
<svg xmlns="http://www.w3.org/2000/svg" xmlns:xlink="http://www.w3.org/1999/xlink" version="1.1" id="Capa_1" x="0px" y="0px" viewBox="0 0 494.116 494.116" style="enable-background:new 0 0 494.116 494.116;" xml:space="preserve" width="512px" height="512px">
<g>
	<path d="M251.86,370.166v62.434c0,11.891,9.647,21.535,21.535,21.535h55.626c11.892,0,21.538-9.645,21.538-21.535v-88.921   c-27.871,17.528-59.648,26.811-93.012,26.811C255.626,370.489,253.768,370.23,251.86,370.166z" fill="#FFFFFF"/>
	<path d="M273.395,158.04c-11.889,0-21.535,9.646-21.535,21.535v99.601c1.891,0.13,3.766,0.323,5.688,0.323   c19.016,0,36.996-6.203,52.037-17.957c17.787-13.909,29.1-33.928,31.846-56.359c1.969-16.043-1.181-32.746-7.9-47.021   L273.395,158.04z" fill="#FFFFFF"/>
	<path d="M472.581,68.319h-55.625c-10.889,0-19.531,8.223-20.967,18.725c28.724,36.899,41.439,82.759,35.752,129.189   c-3.943,32.336-16.658,62.128-36.318,87.063v129.303c0,11.891,9.645,21.535,21.533,21.535h55.625   c11.891,0,21.535-9.645,21.535-21.535V89.855C494.116,77.965,484.471,68.319,472.581,68.319z" fill="#FFFFFF"/>
	<path d="M379.493,99.484c-29.564-37.813-74.077-59.503-122.121-59.503c-34.852,0-67.824,11.374-95.337,32.885   c-32.586,25.479-53.314,62.129-58.34,103.203c-2.099,17.166-1.193,34.194,2.249,50.633l-18.016,14.089l-17.126,13.376   c-4.44,3.489-7.335,8.602-8.013,14.217c-0.697,5.623,0.873,11.285,4.363,15.736l3.117,3.991l-54.188,42.375   c-18.223,14.242-21.438,40.56-7.189,58.776c6.834,8.748,16.868,14.418,27.887,15.768c11.017,1.349,22.132-1.737,30.855-8.58   l54.221-42.393l3.117,3.99c7.256,9.282,20.662,10.914,29.953,3.66l17.27-13.506l17.676-13.822   c20.76,10.05,43.781,15.429,67.676,15.429c34.866,0,67.824-11.365,95.336-32.876c32.588-25.478,53.316-62.135,58.337-103.212   C416.245,172.653,404.97,132.077,379.493,99.484z M361.962,207.695c-3.426,27.917-17.496,52.821-39.646,70.141   c-18.707,14.62-41.1,22.343-64.768,22.343c-32.668,0-62.941-14.733-83.041-40.43c-17.318-22.149-24.978-49.719-21.551-77.645   c3.424-27.917,17.496-52.829,39.646-70.14c18.709-14.622,41.1-22.353,64.77-22.353c32.667,0,62.926,14.743,83.021,40.438   C357.715,152.208,365.372,179.778,361.962,207.695z" fill="#FFFFFF"/>
</g>
<g>
</g>
<g>
</g>
<g>
</g>
<g>
</g>
<g>
</g>
<g>
</g>
<g>
</g>
<g>
</g>
<g>
</g>
<g>
</g>
<g>
</g>
<g>
</g>
<g>
</g>
<g>
</g>
<g>
</g>
</svg>
